<svg width="70" height="70" viewBox="0 0 70 70" fill="none" xmlns="http://www.w3.org/2000/svg">
<path d="M0 20C0 8.9543 8.95431 0 20 0H50C61.0457 0 70 8.95431 70 20V50C70 61.0457 61.0457 70 50 70H20C8.9543 70 0 61.0457 0 50V20Z" fill="#7C5DFA"/>
<mask id="mask0_241_292" style="mask-type:luminance" maskUnits="userSpaceOnUse" x="0" y="0" width="70" height="70">
<path d="M0 20C0 8.9543 8.95431 0 20 0H50C61.0457 0 70 8.95431 70 20V50C70 61.0457 61.0457 70 50 70H20C8.9543 70 0 61.0457 0 50V20Z" fill="white"/>
</mask>
<g mask="url(#mask0_241_292)">
<path d="M70 55.3398C70 44.2941 61.0457 35.3398 50 35.3398H20C8.9543 35.3398 0 44.2941 0 55.3398V85.3398C0 96.3855 8.95431 105.34 20 105.34H50C61.0457 105.34 70 96.3855 70 85.3398V55.3398Z" fill="#9277FF"/>
</g>
<path fill-rule="evenodd" clip-rule="evenodd" d="M29.0155 22.6257L35.3398 35.3397L41.6641 22.6257C45.9856 24.9015 48.932 29.4367 48.932 34.6601C48.932 42.1669 42.8466 48.2524 35.3398 48.2524C27.833 48.2524 21.7476 42.1669 21.7476 34.6601C21.7476 29.4367 24.694 24.9015 29.0155 22.6257Z" fill="white"/>
</svg>
